<?xml version="1.0" encoding="UTF-8" standalone="no"?>
<svg
   xmlns:dc="http://purl.org/dc/elements/1.1/"
   xmlns:cc="http://creativecommons.org/ns#"
   xmlns:rdf="http://www.w3.org/1999/02/22-rdf-syntax-ns#"
   xmlns:svg="http://www.w3.org/2000/svg"
   xmlns="http://www.w3.org/2000/svg"
   xmlns:sodipodi="http://sodipodi.sourceforge.net/DTD/sodipodi-0.dtd"
   xmlns:inkscape="http://www.inkscape.org/namespaces/inkscape"
   inkscape:export-ydpi="101.6"
   inkscape:export-xdpi="101.6"
   inkscape:export-filename="/home/dani/favicon.png"
   inkscape:version="1.0beta2 (unknown)"
   sodipodi:docname="favicon.svg"
   id="svg10925"
   version="1.1"
   viewBox="0 0 64 64"
   height="64mm"
   width="64mm">
  <defs
     id="defs10919" />
  <sodipodi:namedview
     fit-margin-bottom="0"
     fit-margin-right="0"
     fit-margin-left="0"
     fit-margin-top="0"
     inkscape:window-maximized="1"
     inkscape:window-y="0"
     inkscape:window-x="0"
     inkscape:window-height="2075"
     inkscape:window-width="3840"
     showgrid="false"
     inkscape:document-rotation="0"
     inkscape:current-layer="layer1"
     inkscape:document-units="mm"
     inkscape:cy="138.45327"
     inkscape:cx="-51.018736"
     inkscape:zoom="2.8284271"
     inkscape:pageshadow="2"
     inkscape:pageopacity="0.0"
     borderopacity="1.0"
     bordercolor="#666666"
     pagecolor="#ffffff"
     id="base" />
  <metadata
     id="metadata10922">
    <rdf:RDF>
      <cc:Work
         rdf:about="">
        <dc:format>image/svg+xml</dc:format>
        <dc:type
           rdf:resource="http://purl.org/dc/dcmitype/StillImage" />
        <dc:title></dc:title>
      </cc:Work>
    </rdf:RDF>
  </metadata>
  <g
     transform="translate(-120.64173,-70.749612)"
     id="layer1"
     inkscape:groupmode="layer"
     inkscape:label="Layer 1">
    <g
       transform="matrix(9.0818752,0,0,9.0818752,117.44946,125.38335)"
       style="fill:#ff7f0e;fill-opacity:1;stroke-width:0.0102775"
       id="use4358">
      <path
         id="path11496"
         d="m 7.203125,-2.5 c 0,-1.828125 -1.5,-3.3125 -3.328125,-3.3125 -1.84375,0 -3.328125,1.5 -3.328125,3.3125 0,1.84375 1.5,3.328125 3.328125,3.328125 1.84375,0 3.328125,-1.5 3.328125,-3.328125 z m -5.3125,-2.140625 C 1.875,-4.65625 1.796875,-4.71875 1.796875,-4.75 c 0,-0.03125 0.8125,-0.8125 2.078125,-0.8125 0.34375,0 1.265625,0.046875 2.078125,0.8125 L 3.875,-2.65625 Z M 1.609375,-0.40625 C 1,-1.09375 0.796875,-1.859375 0.796875,-2.5 c 0,-0.765625 0.296875,-1.484375 0.8125,-2.078125 L 3.6875,-2.5 Z M 6.125,-4.578125 C 6.609375,-4.0625 6.953125,-3.3125 6.953125,-2.5 c 0,0.78125 -0.296875,1.5 -0.8125,2.09375 L 4.0625,-2.5 Z M 5.859375,-0.34375 C 5.875,-0.328125 5.9375,-0.265625 5.9375,-0.234375 c 0,0.03125 -0.796875,0.8125 -2.0625,0.8125 -0.34375,0 -1.265625,-0.046875 -2.078125,-0.8125 L 3.875,-2.328125 Z m 0,0"
         style="stroke:none;stroke-width:0.0102775;fill:#ff7f0e;fill-opacity:1"
         inkscape:connector-curvature="0" />
    </g>
  </g>
</svg>
